<?xml version="1.0" encoding="UTF-8" standalone="no"?>
<svg width="800" height="600" xmlns="http://www.w3.org/2000/svg">
  <!-- Estilos -->
  <defs>
    <style type="text/css">
      .box {
        fill: #f0f8ff;
        stroke: #2c3e50;
        stroke-width: 2;
        rx: 10;
        ry: 10;
      }
      .box-siem {
        fill: #d1e8ff;
        stroke: #1a5276;
      }
      .box-soar {
        fill: #d6eaf8;
        stroke: #2874a6;
      }
      .box-edr {
        fill: #e8f6f3;
        stroke: #117a65;
      }
      .box-iomt {
        fill: #eafaf1;
        stroke: #138d75;
      }
      .box-dlp {
        fill: #f9ebea;
        stroke: #922b21;
      }
      .box-ids {
        fill: #ebdef0;
        stroke: #884ea0;
      }
      .box-vuln {
        fill: #f4f6f6;
        stroke: #1abc9c;
      }
      .box-iam {
        fill: #fdebd0;
        stroke: #d35400;
      }
      .perimeter {
        fill: none;
        stroke: #7f8c8d;
        stroke-width: 2;
        stroke-dasharray: 10,5;
        rx: 20;
        ry: 20;
      }
      .text {
        font-family: Arial, sans-serif;
        font-size: 14px;
        fill: #2c3e50;
        text-anchor: middle;
        dominant-baseline: middle;
      }
      .title {
        font-weight: bold;
        font-size: 16px;
      }
      .subtitle {
        font-size: 12px;
        font-style: italic;
      }
      .small-text {
        font-size: 10px;
      }
      .line {
        stroke: #7f8c8d;
        stroke-width: 1.5;
      }
      .data-flow {
        stroke: #3498db;
        stroke-width: 2;
        stroke-dasharray: 5,3;
        marker-end: url(#arrowhead);
      }
      .alert-flow {
        stroke: #e74c3c;
        stroke-width: 2;
        stroke-dasharray: 3,2;
        marker-end: url(#arrowhead);
      }
      .action-flow {
        stroke: #2ecc71;
        stroke-width: 2;
        marker-end: url(#arrowhead);
      }
    </style>
    <marker id="arrowhead" markerWidth="10" markerHeight="7" refX="9" refY="3.5" orient="auto">
      <polygon points="0 0, 10 3.5, 0 7" fill="#7f8c8d"/>
    </marker>
  </defs>

  <!-- Título do Diagrama -->
  <text x="20" y="30" class="title" font-size="18" text-anchor="start" fill="#2c3e50" font-family="Arial, sans-serif">Arquitetura de Integração das Ferramentas de Segurança</text>
  <text x="20" y="50" class="subtitle" text-anchor="start" fill="#7f8c8d">Hospital São Rafael</text>

  <!-- Contorno do Ecossistema de Segurança -->
  <rect x="50" y="80" width="700" height="470" class="perimeter" />
  <text x="160" y="95" class="text subtitle" text-anchor="start" fill="#7f8c8d">Ecossistema Integrado de Segurança</text>

  <!-- SIEM - IBM QRadar (Núcleo Central) -->
  <circle cx="400" cy="250" r="80" class="box box-siem" />
  <text x="400" y="240" class="text title">SIEM</text>
  <text x="400" y="260" class="text subtitle">IBM QRadar</text>
  <text x="400" y="280" class="text small-text">(Correlação de Eventos)</text>

  <!-- SOAR - Splunk Phantom -->
  <rect x="330" y="100" width="140" height="60" class="box box-soar" />
  <text x="400" y="120" class="text title">SOAR</text>
  <text x="400" y="140" class="text subtitle">Splunk Phantom</text>

  <!-- Posicionando as ferramentas em formato de círculo ao redor do SIEM -->
  
  <!-- EDR - CrowdStrike Falcon (à esquerda) -->
  <rect x="100" y="150" width="140" height="60" class="box box-edr" />
  <text x="170" y="170" class="text title">EDR</text>
  <text x="170" y="190" class="text subtitle">CrowdStrike Falcon</text>

  <!-- IDS/IPS - Palo Alto Networks (à esquerda abaixo) -->
  <rect x="100" y="300" width="140" height="60" class="box box-ids" />
  <text x="170" y="320" class="text title">IDS/IPS</text>
  <text x="170" y="340" class="text subtitle">Palo Alto Networks</text>

  <!-- IoMT - Medigate (à direita) -->
  <rect x="560" y="150" width="140" height="60" class="box box-iomt" />
  <text x="630" y="170" class="text title">IoMT Security</text>
  <text x="630" y="190" class="text subtitle">Medigate</text>

  <!-- Vulnerability Management - Tenable.io (à direita abaixo) -->
  <rect x="560" y="300" width="140" height="60" class="box box-vuln" />
  <text x="630" y="320" class="text title">Vuln. Management</text>
  <text x="630" y="340" class="text subtitle">Tenable.io</text>

  <!-- DLP - Forcepoint (embaixo) -->
  <rect x="250" y="400" width="140" height="60" class="box box-dlp" />
  <text x="320" y="420" class="text title">DLP</text>
  <text x="320" y="440" class="text subtitle">Forcepoint</text>

  <!-- IAM - CyberArk (embaixo direita) -->
  <rect x="410" y="400" width="140" height="60" class="box box-iam" />
  <text x="480" y="420" class="text title">IAM</text>
  <text x="480" y="440" class="text subtitle">CyberArk</text>

  <!-- Áreas de Fontes de Dados -->
  <rect x="100" y="480" width="600" height="40" rx="10" ry="10" fill="#f5f5f5" stroke="#95a5a6" stroke-width="1" />
  <text x="400" y="500" class="text" fill="#2c3e50">Fontes de Dados: Endpoints, Servidores, Rede, Dispositivos Médicos, Aplicações, Logs</text>

  <!-- Linhas de Conexão com SIEM (Centro) -->
  <!-- Fluxo de dados para o SIEM -->
  <line x1="240" y1="180" x2="320" y2="230" class="data-flow" />   <!-- EDR para SIEM -->
  <line x1="240" y1="320" x2="330" y2="280" class="data-flow" />   <!-- IDS para SIEM -->
  <line x1="560" y1="180" x2="480" y2="230" class="data-flow" />   <!-- IoMT para SIEM -->
  <line x1="560" y1="320" x2="480" y2="280" class="data-flow" />   <!-- Vuln para SIEM -->
  <line x1="320" y1="400" x2="360" y2="320" class="data-flow" />   <!-- DLP para SIEM -->
  <line x1="480" y1="400" x2="440" y2="320" class="data-flow" />   <!-- IAM para SIEM -->
  
  <!-- Comunicação entre SIEM e SOAR -->
  <line x1="400" y1="170" x2="400" y2="200" class="alert-flow" />  <!-- SIEM envia alertas para SOAR -->
  <line x1="440" y1="160" x2="440" y2="200" class="data-flow" />  <!-- SOAR envia dados para SIEM -->

  <!-- Linhas de Ação/Orquestração do SOAR (evitando cruzamentos) -->
  <path d="M 350 160 Q 300 165 240 180" class="action-flow" fill="none" />  <!-- SOAR para EDR -->
  <path d="M 350 160 Q 280 220 200 300" class="action-flow" fill="none" />  <!-- SOAR para IDS -->
  <path d="M 450 160 Q 500 165 560 180" class="action-flow" fill="none" />  <!-- SOAR para IoMT -->
  <path d="M 450 160 Q 520 220 600 300" class="action-flow" fill="none" />  <!-- SOAR para Vuln -->
  <path d="M 380 160 Q 310 280 280 400" class="action-flow" fill="none" />  <!-- SOAR para DLP -->
  <path d="M 420 160 Q 490 280 480 400" class="action-flow" fill="none" />  <!-- SOAR para IAM -->

  <!-- Integrações diretas horizontais (simplificadas) -->
  <line x1="390" y1="430" x2="410" y2="430" class="line" />  <!-- DLP para IAM -->
  <line x1="630" y1="360" x2="630" y2="380" class="line" />  <!-- Vuln para outra ferramenta (pode ser removida) -->

  <!-- Conexão com Fontes de Dados (apenas as mais importantes) -->
  <line x1="400" y1="330" x2="400" y2="480" class="data-flow" />  <!-- SIEM para Fontes -->
  <line x1="170" y1="360" x2="170" y2="480" class="data-flow" />  <!-- IDS para Fontes -->
  <line x1="630" y1="360" x2="630" y2="480" class="data-flow" />  <!-- Vuln para Fontes -->

  <!-- Legenda -->
  <rect x="140" y="540" width="20" height="3" class="data-flow" />
  <text x="210" y="542" class="text small-text" text-anchor="start" fill="#3498db">Fluxo de Dados</text>
  
  <rect x="290" y="540" width="20" height="3" class="alert-flow" />
  <text x="360" y="542" class="text small-text" text-anchor="start" fill="#e74c3c">Alertas</text>
  
  <rect x="440" y="540" width="20" height="3" class="action-flow" />
  <text x="510" y="542" class="text small-text" text-anchor="start" fill="#2ecc71">Orquestração/Ações</text>
  
  <rect x="590" y="540" width="20" height="3" class="line" />
  <text x="660" y="542" class="text small-text" text-anchor="start" fill="#7f8c8d">Integração Direta</text>
</svg> 